PathFileType	4	(X/Y/Z)	54_2_rein_90_p1_0-708_filt_butterworth.trc
DataRate	CameraRate	NumFrames	NumMarkers	Units	OrigDataRate	OrigDataStartFrame	OrigNumFrames
59.0	59.0	5	27	m	59.0	177	708
Frame#	Time	RHip			RKnee			RAnkle			RBigToe			RSmallToe			RHeel			LHip			LKnee			LAnkle			LBigToe			LSmallToe			LHeel			Neck			Head			Nose			RShoulder			RElbow			RWrist			RThumb			RIndex			RPinky			LShoulder			LElbow			LWrist			LThumb			LIndex			LPinky			
		X1	Y1	Z1	X2	Y2	Z2	X3	Y3	Z3	X4	Y4	Z4	X5	Y5	Z5	X6	Y6	Z6	X7	Y7	Z7	X8	Y8	Z8	X9	Y9	Z9	X10	Y10	Z10	X11	Y11	Z11	X12	Y12	Z12	X13	Y13	Z13	X14	Y14	Z14	X15	Y15	Z15	X16	Y16	Z16	X17	Y17	Z17	X18	Y18	Z18	X19	Y19	Z19	X20	Y20	Z20	X21	Y21	Z21	X22	Y22	Z22	X23	Y23	Z23	X24	Y24	Z24	X25	Y25	Z25	X26	Y26	Z26	X27	Y27	Z27	
177	3.0	0.2796330153290955	0.4924706622545566	0.9505697918244012	0.2850853299149899	0.5433141413049396	1.4675308457586986	0.2722743059067108	0.5559678567011819	1.9249225796162317	0.21940023135704864	0.3586892115890849	1.9407951649167943	0.288647420024305	0.391871155517703	1.9578910184644152	0.2533117001008793	0.6542305158870685	2.0091403341468985	0.05917763661030648	0.5274256559516592	0.9581193802268456	0.07952507465212648	0.5484563840771866	1.4592703737889892	0.06858778386969787	0.5678427657271102	1.8893805041759482	0.07332352067011672	0.3903086956575645	1.951653721729082	0.014765517616428163	0.4245135043071552	1.9573721145853131	0.08756421220522913	0.6138350603563842	1.9533453868200392	0.2107871100397411	0.4988845503503315	0.4049989214173573	0.24104341340728289	0.4546997376543291	0.16089454159161135	0.22850015103952726	0.37243894106526476	0.27255213117459365	0.36212389946065415	0.4926066475706028	0.5073829899707831	0.39791299676771164	0.5324398135095171	0.7976205988303534	0.3837759128318198	0.36649030503671093	1.0006932675226405	0.32114452707727853	0.2770041763838752	1.1156200525574311	0.3326991913881583	0.2538002263231272	1.1286610893936355	0.3736164370839048	0.3536628949367821	1.1690569629483485	0.03498470023130219	0.5294965514181589	0.4681747505954473	-0.03317346056264775	0.5689878568262859	0.7610501039505839	-0.04725810134720551	0.4296796986436509	1.006589966697486	-0.004836256394050226	0.41716699617674036	1.1180578189064883	-0.03342402591729683	0.36537366860383436	1.1115042406364535	-0.07270971543744828	0.4505750077180784	1.1437971366568493
178	3.016949152542373	0.27960984683624723	0.49744229351854485	0.9508566413839659	0.28476473851470174	0.5433485513963652	1.4669710499093898	0.27223441277813193	0.5559248627094577	1.9249545383268494	0.21932599926727914	0.3588998874587458	1.9409999981278352	0.28778970797817766	0.3931181729329457	1.9587211161141085	0.2535935009249815	0.6541534459085011	2.009303295315859	0.059038234232635	0.534093342559494	0.9583700256588645	0.07910935609000273	0.5485724356509971	1.460051094035833	0.06735541064384565	0.5662610200608079	1.8898997988390747	0.07278231125324848	0.3895575566154754	1.9514284499116923	0.014754852769046674	0.42447399444228207	1.957365738758733	0.08668075399681527	0.61641183579851	1.9541538540826144	0.21085254214287907	0.49901025117771547	0.40504331240247726	0.24067441378280235	0.45448290091199717	0.16090472911360526	0.22857411869795244	0.37260571212330473	0.27257553095430026	0.3620333542611478	0.4924116739507423	0.5069874840719888	0.3962398280992724	0.5399188556282315	0.7985996377671212	0.38228949588808114	0.36411366699640046	0.996842337975858	0.32118820806580195	0.2697040931644086	1.1057725237248166	0.3325442443554912	0.2548007448966378	1.127687612363916	0.3732386706321822	0.3491266252347962	1.1667947298340011	0.03568412265292702	0.5322738290019462	0.46857004919176487	-0.03319749359797054	0.5687883836975457	0.7615269404918734	-0.04168398610883601	0.4402175555899156	1.0127454988233973	0.00046639253651956027	0.4258670465986587	1.1232187105140874	-0.030387509763339756	0.37409891145475793	1.1150270330792809	-0.07217460759775125	0.4509022100091392	1.14422911206485
179	3.0338983050847457	0.2803455628030123	0.4987134476265115	0.9511239928685857	0.2836869640085331	0.543008082187964	1.4661931241828707	0.27220105693857954	0.5558828861744164	1.925037159564917	0.21892802328067082	0.35888566889011664	1.9415583721631429	0.28546756103904647	0.3962601222569141	1.9609646533550136	0.2538816835474521	0.6537663470377275	2.0099201336488317	0.05933435663822976	0.5381980413182538	0.9583292002603581	0.07806425535043725	0.5474951335850722	1.4601177028630885	0.06642205357544292	0.5650471893823098	1.8902939296539418	0.07139395266890924	0.3882057674834549	1.950891637388135	0.01473991193948564	0.4244258928661656	1.9573726430249776	0.08549393066494976	0.6169994402606389	1.9548190784024209	0.2108841054567384	0.4991547873774324	0.4051192003017113	0.23971085447112653	0.45409717279466977	0.16061977811061467	0.22861612344784965	0.3726753038294197	0.2726235896932075	0.3620330796428081	0.4925551746150974	0.5062232473788948	0.39478457909078357	0.546191002965436	0.7991151215752326	0.38002683262635273	0.36061344309211046	0.9919753933153825	0.3208460493324703	0.260681890705314	1.0926985117071797	0.33309530376003316	0.2548925010527957	1.124101391977097	0.3731177374781515	0.34354227123174347	1.161208933109945	0.03589188773373386	0.5332309794450936	0.4687232323684921	-0.033284793889636816	0.5688285487367368	0.7616040417662034	-0.03571619377598991	0.4567151595231942	1.0202293670826692	0.005554569588475019	0.4335593309112155	1.1276485692104046	-0.026610216135517156	0.38743213280626326	1.1211661465133886	-0.071463525140297	0.4508239859903122	1.144525545434423
180	3.0508474576271185	0.28213641661879457	0.49783670833886634	0.9508236136481741	0.2818586631627889	0.541719411780547	1.4649426832596197	0.27217928249485773	0.5558412978521666	1.9250543718867807	0.2181073242419524	0.35797093006322206	1.9423122196761402	0.28233840595095483	0.40028846945188346	1.9638677238773132	0.254123545759314	0.6532142365577496	2.011248662082049	0.060266334503249225	0.5384203661661157	0.9580450829493317	0.0765179830999067	0.5478456045198113	1.4606609343324628	0.06606914218653138	0.5645730945228122	1.8904862160033373	0.069581781219097	0.38669128818276877	1.950481458684127	0.014727996956283853	0.4243798454630587	1.9573825681543273	0.08449003015453603	0.6137885571788373	1.9548641389123431	0.2108801891585225	0.49929477243117976	0.405244468932515	0.23842502979422464	0.45370930691322453	0.1598591524086878	0.22861975989440833	0.37265967615543694	0.27268835441697925	0.36246564796991915	0.4937829254275888	0.5056345769148834	0.39394244817234475	0.549668000853716	0.7991824871027885	0.3777744868235348	0.3578415578932462	0.9867859942480639	0.32077927342570384	0.2525964125490049	1.0782610447849428	0.3361938866033359	0.25025400044239626	1.1142169879921608	0.3738378922073804	0.33913880416302633	1.1507707529152293	0.03576587062443359	0.5329529863634542	0.4687239751785522	-0.03295888765374212	0.5689834938367894	0.7611844156735805	-0.03095674024020509	0.4718195946407197	1.0268161825865414	0.009631129178821066	0.4391894553092731	1.1308720251952573	-0.022550094936574085	0.40293047569284846	1.1285406060289056	-0.06990291665286741	0.4502109066303992	1.1446092565082
181	3.067796610169492	0.28451859625038184	0.49641273251131846	0.9498089686969634	0.27957849869803886	0.538868074687908	1.462544616791823	0.272172800269917	0.5557944980618275	1.92478140515729	0.21704527195320572	0.35566690759380376	1.9423711656538456	0.27996947756263346	0.4032495813382299	1.9658490852820585	0.2542988538399521	0.6528551186000741	2.012563422546365	0.06154029877435595	0.5359896111066671	0.9578398037555526	0.07576365012498619	0.5501956011504106	1.4618815275876358	0.06609747538876226	0.5646004084760289	1.8905699511376963	0.06821812230146523	0.3857326699084799	1.9504507037499168	0.014722403945953318	0.42435050960847936	1.9573834683166347	0.08397989909498156	0.6088746610910426	1.9544948574272754	0.21087399011157965	0.49941311913546155	0.4053175209046481	0.23745341256948332	0.45353485651783754	0.15883688223350004	0.22860956179931596	0.3726310566823783	0.2726690384250309	0.363579936623875	0.49659904650305364	0.5057156410528845	0.39376179093361874	0.5505442635685504	0.798459989137698	0.37638165641633126	0.3573070813628516	0.9808811773589132	0.3221453050710168	0.2460225705820891	1.0635948217057336	0.34346965509742006	0.23713672170933311	1.0953632391177353	0.37633095746806955	0.33806740894864484	1.1349725932980357	0.0356996653340909	0.5324525489009153	0.4686771203074302	-0.03156292206377935	0.568498170158512	0.7599615359045064	-0.02839468901340788	0.4802453788387792	1.0307469110742442	0.012899779457398515	0.4434145482196681	1.1329386222051319	-0.018815463449447314	0.4169207158065163	1.1349977207055448	-0.06741303177027501	0.449527994191409	1.1446376584474123
